<svg width="558" height="582" viewBox="0 0 558 582" fill="none" xmlns="http://www.w3.org/2000/svg">
<mask id="path-1-inside-1_279_256" fill="white">
<path d="M97.25 272.812L66.3313 294.395C66.3313 294.395 42.0813 262.991 46.0825 251.23C61.6025 205.397 163.089 180.056 163.089 180.056C148.527 175.444 133.214 173.674 117.984 174.842C139.566 149.986 216.075 116.642 216.075 116.642C210.134 78.085 241.538 54.5625 253.299 54.5625C265.06 54.5625 319.259 112.035 319.259 112.035C334.181 115.774 348.81 120.596 363.03 126.464C335.021 127.07 309.438 158.474 309.438 158.474C339.507 144.772 410.196 158.474 412.742 158.474C421.138 166.73 428.805 175.695 435.659 185.27C414.834 182.935 393.834 187.768 376.125 198.971C408.862 193.151 453.967 214.734 459.181 219.947C466.82 227.586 546.602 378.179 404.255 479.301C235.596 599.217 120.651 457.112 120.651 457.112C120.651 457.112 263.12 569.511 392.494 462.326C512.167 363.265 427.171 255.474 427.171 255.474C487.796 422.192 301.678 480.999 301.678 480.999C416.986 417.585 382.066 311.249 382.066 311.249C382.066 404.126 298.404 436.5 298.404 436.5C301.893 429.866 303.841 422.53 304.102 415.039C304.345 406.366 301.754 397.851 296.722 390.784C291.689 383.716 284.49 378.482 276.215 375.875C276.215 375.875 249.661 434.681 247.721 436.5C245.781 438.319 244.811 441.835 209.528 441.835C199.115 441.693 188.909 438.902 179.873 433.726C170.836 428.55 163.266 421.16 157.875 412.25C176.547 408.855 211.346 388 211.346 360.234C211.123 348.57 206.316 337.463 197.966 329.316C189.615 321.17 178.392 316.639 166.726 316.705C146.114 316.705 113.861 335.741 104.525 340.955L71.7875 291"/>
</mask>
<path d="M111.56 293.312C122.881 285.409 125.653 269.825 117.75 258.503C109.847 247.181 94.2621 244.41 82.9404 252.313L111.56 293.312ZM66.3313 294.395L46.5441 309.675C54.6969 320.233 69.7028 322.53 80.6408 314.895L66.3313 294.395ZM46.0825 251.23L69.7503 259.282C69.7542 259.271 69.758 259.26 69.7617 259.248L46.0825 251.23ZM163.089 180.056L169.145 204.312C179.998 201.602 187.73 192.012 188.077 180.832C188.424 169.651 181.301 159.601 170.637 156.223L163.089 180.056ZM117.984 174.842L99.1067 158.452C92.4588 166.108 91.0939 177.021 95.6514 186.079C100.209 195.137 109.786 200.545 119.896 199.769L117.984 174.842ZM216.075 116.642L226.063 139.561C236.467 135.026 242.512 124.052 240.783 112.835L216.075 116.642ZM319.259 112.035L301.071 129.187C304.347 132.662 308.55 135.125 313.183 136.285L319.259 112.035ZM363.03 126.464L363.571 151.458C375.4 151.202 385.429 142.689 387.604 131.059C389.779 119.429 383.503 107.867 372.566 103.354L363.03 126.464ZM309.438 158.474L290.055 142.684C282.72 151.687 282.551 164.556 289.647 173.749C296.743 182.943 309.235 186.039 319.803 181.223L309.438 158.474ZM412.742 158.474L430.271 140.648C425.595 136.05 419.3 133.474 412.742 133.474V158.474ZM435.659 185.27L432.873 210.114C442.685 211.214 452.225 206.437 457.221 197.922C462.217 189.406 461.734 178.748 455.988 170.719L435.659 185.27ZM376.125 198.971L362.759 177.844C352.662 184.232 348.496 196.872 352.817 208.012C357.138 219.151 368.737 225.677 380.501 223.585L376.125 198.971ZM404.255 479.301L389.777 458.92L389.768 458.926L404.255 479.301ZM120.651 457.112L136.136 437.485C126.14 429.599 111.814 430.485 102.866 439.543C93.9184 448.6 93.2069 462.936 101.214 472.835L120.651 457.112ZM392.494 462.326L376.553 443.068L376.544 443.075L392.494 462.326ZM427.171 255.474L446.802 239.994C439.202 230.355 425.728 227.66 415.005 233.634C404.282 239.607 399.482 252.482 403.676 264.017L427.171 255.474ZM301.678 480.999L289.63 459.093C278.365 465.288 273.636 479.017 278.694 490.836C283.753 502.655 296.951 508.71 309.21 504.837L301.678 480.999ZM382.066 311.249L405.818 303.449C401.986 291.779 390.245 284.622 378.117 286.563C365.988 288.503 357.066 298.966 357.066 311.249H382.066ZM298.404 436.5L276.278 424.862C271.426 434.086 272.806 445.352 279.739 453.132C286.673 460.913 297.706 463.576 307.426 459.815L298.404 436.5ZM304.102 415.039L329.087 415.91C329.089 415.853 329.091 415.796 329.093 415.738L304.102 415.039ZM276.215 375.875L283.728 352.031C271.653 348.226 258.64 354.048 253.43 365.587L276.215 375.875ZM209.528 441.835L209.186 466.833C209.3 466.834 209.414 466.835 209.528 466.835L209.528 441.835ZM157.875 412.25L153.403 387.653C145.312 389.124 138.461 394.481 135.083 401.979C131.704 409.476 132.228 418.156 136.486 425.192L157.875 412.25ZM211.346 360.234H236.346C236.346 360.074 236.345 359.915 236.342 359.756L211.346 360.234ZM166.726 316.705L166.726 341.705C166.773 341.705 166.82 341.705 166.867 341.705L166.726 316.705ZM104.525 340.955L83.6151 354.658C90.8068 365.632 105.259 369.179 116.714 362.782L104.525 340.955ZM92.6974 277.297C85.1294 265.749 69.6326 262.522 58.0844 270.09C46.5362 277.658 43.3096 293.155 50.8776 304.703L92.6974 277.297ZM82.9404 252.313L52.0217 273.895L80.6408 314.895L111.56 293.312L82.9404 252.313ZM66.3313 294.395C86.1184 279.115 86.1203 279.118 86.1221 279.12C86.1225 279.121 86.1242 279.123 86.1251 279.124C86.127 279.126 86.1285 279.128 86.1297 279.13C86.132 279.133 86.1329 279.134 86.1324 279.133C86.1314 279.132 86.1249 279.124 86.113 279.108C86.0891 279.077 86.0437 279.018 85.9785 278.932C85.8479 278.759 85.6383 278.481 85.3622 278.11C84.8087 277.365 83.9953 276.254 83.0197 274.874C81.0427 272.077 78.5225 268.347 76.1745 264.412C73.7347 260.323 71.9401 256.774 70.9891 254.219C70.5188 252.954 70.505 252.589 70.5583 252.966C70.5861 253.164 70.9686 255.701 69.7503 259.282L22.4147 243.178C18.3808 255.035 22.2365 266.571 24.1276 271.654C26.5982 278.294 30.1158 284.801 33.2384 290.034C36.4527 295.42 39.7449 300.276 42.1898 303.735C43.4251 305.482 44.475 306.917 45.2319 307.935C45.6111 308.446 45.9186 308.854 46.1413 309.147C46.2527 309.294 46.343 309.413 46.4107 309.501C46.4445 309.545 46.4727 309.582 46.495 309.611C46.5061 309.625 46.5158 309.638 46.524 309.649C46.5281 309.654 46.5318 309.659 46.5352 309.663C46.5368 309.665 46.5391 309.668 46.5399 309.669C46.542 309.672 46.5441 309.675 66.3313 294.395ZM69.7617 259.248C71.3171 254.655 76.028 248.228 85.9649 240.734C95.549 233.506 107.789 226.942 120.507 221.324C133.091 215.766 145.358 211.474 154.541 208.564C159.108 207.117 162.851 206.03 165.414 205.316C166.694 204.959 167.676 204.695 168.313 204.527C168.632 204.443 168.865 204.383 169.005 204.347C169.076 204.329 169.123 204.317 169.146 204.311C169.158 204.308 169.164 204.307 169.164 204.307C169.164 204.307 169.162 204.307 169.159 204.308C169.158 204.308 169.154 204.309 169.153 204.309C169.15 204.31 169.145 204.312 163.089 180.056C157.032 155.801 157.027 155.802 157.022 155.804C157.019 155.804 157.014 155.806 157.009 155.807C157 155.809 156.989 155.812 156.977 155.815C156.952 155.821 156.921 155.829 156.884 155.838C156.81 155.857 156.711 155.882 156.589 155.913C156.345 155.976 156.005 156.064 155.577 156.177C154.721 156.402 153.507 156.728 151.981 157.154C148.933 158.004 144.627 159.255 139.437 160.9C129.107 164.174 115.032 169.082 100.304 175.588C85.7106 182.034 69.6691 190.399 55.8595 200.813C42.4028 210.961 28.6079 224.889 22.4033 243.212L69.7617 259.248ZM170.637 156.223C153.021 150.644 134.496 148.502 116.071 149.916L119.896 199.769C131.932 198.846 144.033 200.245 155.54 203.889L170.637 156.223ZM136.861 191.233C139.871 187.766 146.262 182.566 156.021 176.236C165.342 170.19 176.191 164.089 186.732 158.563C197.219 153.064 207.103 148.289 214.379 144.884C218.009 143.186 220.968 141.838 223.004 140.922C224.021 140.465 224.806 140.115 225.327 139.885C225.587 139.77 225.781 139.684 225.905 139.63C225.967 139.602 226.012 139.583 226.038 139.571C226.052 139.566 226.06 139.562 226.064 139.56C226.066 139.559 226.067 139.559 226.067 139.559C226.067 139.559 226.066 139.559 226.066 139.559C226.065 139.56 226.063 139.561 216.075 116.642C206.087 93.7244 206.085 93.7254 206.082 93.7265C206.081 93.727 206.078 93.7282 206.076 93.7293C206.071 93.7314 206.065 93.734 206.058 93.7372C206.043 93.7435 206.024 93.7518 206.001 93.7621C205.953 93.7828 205.888 93.8115 205.804 93.8481C205.638 93.9213 205.4 94.0261 205.094 94.1611C204.484 94.4313 203.604 94.8227 202.487 95.3254C200.254 96.3302 197.067 97.7816 193.187 99.5975C185.444 103.221 174.851 108.336 163.514 114.28C152.229 120.197 139.905 127.092 128.811 134.289C118.154 141.202 106.887 149.491 99.1067 158.452L136.861 191.233ZM240.783 112.835C239.043 101.541 242.639 92.9119 247.554 86.781C250.103 83.6014 252.83 81.3525 254.908 80.0573C257.779 78.268 257.178 79.5625 253.299 79.5625V29.5625C243.539 29.5625 234.602 33.7973 228.463 37.6234C221.53 41.9436 214.572 47.9852 208.543 55.5058C196.301 70.7756 187.166 93.1868 191.367 120.45L240.783 112.835ZM253.299 79.5625C249.436 79.5625 246.909 78.5072 246.622 78.3912C246.025 78.1505 245.979 78.0663 246.605 78.4441C247.859 79.1995 249.966 80.6775 252.949 83.0643C258.825 87.7644 266.08 94.3539 273.408 101.364C280.647 108.289 287.578 115.259 292.726 120.527C295.291 123.153 297.395 125.337 298.851 126.857C299.579 127.616 300.143 128.209 300.521 128.607C300.71 128.806 300.852 128.956 300.945 129.054C300.991 129.103 301.025 129.139 301.046 129.161C301.057 129.172 301.064 129.18 301.068 129.184C301.07 129.187 301.071 129.188 301.072 129.188C301.072 129.189 301.072 129.188 301.072 129.188C301.071 129.188 301.071 129.187 319.259 112.035C337.447 94.8829 337.446 94.8817 337.444 94.8803C337.444 94.8796 337.442 94.878 337.441 94.8764C337.438 94.8734 337.434 94.8695 337.43 94.8647C337.421 94.8551 337.408 94.8421 337.393 94.8257C337.362 94.7928 337.318 94.7462 337.261 94.6864C337.148 94.5668 336.984 94.3942 336.773 94.1722C336.352 93.7282 335.74 93.0861 334.963 92.2742C333.408 90.6512 331.186 88.3451 328.487 85.5828C323.105 80.0743 315.751 72.6767 307.971 65.2335C300.279 57.8755 291.779 50.0968 284.184 44.0209C280.433 41.0196 276.376 38.0076 272.414 35.62C270.433 34.4262 268.016 33.1073 265.334 32.0247C262.96 31.0668 258.632 29.5625 253.299 29.5625V79.5625ZM313.183 136.285C326.925 139.728 340.398 144.17 353.494 149.574L372.566 103.354C357.222 97.0222 341.436 91.8186 325.334 87.7845L313.183 136.285ZM362.489 101.47C340.059 101.955 321.232 114.269 310.102 123.183C304.102 127.988 299.224 132.717 295.84 136.242C294.134 138.019 292.771 139.527 291.797 140.637C291.31 141.193 290.917 141.652 290.625 141.998C290.479 142.171 290.359 142.316 290.263 142.431C290.216 142.488 290.175 142.538 290.14 142.58C290.122 142.601 290.107 142.621 290.093 142.638C290.086 142.646 290.079 142.655 290.073 142.662C290.07 142.666 290.065 142.671 290.064 142.673C290.059 142.678 290.055 142.684 309.438 158.474C328.82 174.264 328.816 174.269 328.812 174.274C328.811 174.275 328.807 174.28 328.805 174.282C328.8 174.288 328.796 174.293 328.792 174.298C328.784 174.308 328.777 174.316 328.772 174.322C328.763 174.334 328.758 174.339 328.76 174.337C328.763 174.333 328.79 174.301 328.838 174.244C328.935 174.129 329.119 173.913 329.386 173.609C329.921 172.999 330.775 172.05 331.905 170.873C334.193 168.49 337.461 165.33 341.359 162.209C350.023 155.27 357.993 151.579 363.571 151.458L362.489 101.47ZM319.803 181.223C323.157 179.695 329.591 178.227 339.378 177.65C348.715 177.1 359.211 177.452 369.449 178.259C379.609 179.059 389.056 180.267 396.202 181.293C399.768 181.805 402.725 182.266 404.961 182.614C406.036 182.782 407.075 182.943 407.884 183.061C408.282 183.119 408.782 183.19 409.284 183.251C409.302 183.254 410.914 183.474 412.742 183.474V133.474C414.873 133.474 416.728 133.822 415.102 133.585C414.581 133.509 413.811 133.39 412.65 133.209C410.416 132.861 407.198 132.359 403.309 131.801C395.545 130.686 384.963 129.326 373.374 128.413C361.863 127.506 348.889 127.003 336.436 127.737C324.431 128.444 310.753 130.401 299.072 135.724L319.803 181.223ZM395.214 176.299C402.584 183.546 409.314 191.416 415.329 199.821L455.988 170.719C448.297 159.974 439.693 149.913 430.271 140.648L395.214 176.299ZM438.444 160.426C411.969 157.457 385.273 163.601 362.759 177.844L389.491 220.098C402.396 211.934 417.698 208.413 432.873 210.114L438.444 160.426ZM380.501 223.585C390.709 221.77 405.384 224.162 420.096 229.048C427.042 231.355 433.168 233.94 437.662 236.128C439.917 237.227 441.568 238.131 442.596 238.748C444.213 239.718 443.186 239.308 441.504 237.625L476.859 202.27C473.873 199.284 470.296 197.058 468.321 195.873C465.756 194.334 462.772 192.743 459.554 191.176C453.101 188.033 444.927 184.609 435.853 181.596C418.525 175.841 394.278 170.352 371.749 174.357L380.501 223.585ZM441.504 237.625C439.78 235.902 439.247 234.757 440.2 236.279C440.75 237.156 441.605 238.627 442.691 240.707C444.85 244.843 447.63 250.829 450.449 258.301C456.11 273.301 461.64 293.508 463.009 316.081C465.676 360.073 452.865 414.103 389.777 458.92L418.733 499.682C497.993 443.377 516.464 371.549 512.917 313.055C511.179 284.384 504.227 259.191 497.229 240.647C493.719 231.346 490.124 223.524 487.014 217.567C485.465 214.6 483.963 211.955 482.574 209.737C481.589 208.164 479.537 204.948 476.859 202.27L441.504 237.625ZM389.768 458.926C312.787 513.66 251.009 507.489 208.734 490.062C186.881 481.054 169.468 468.664 157.478 458.429C151.516 453.339 146.994 448.867 144.036 445.756C142.56 444.204 141.481 442.999 140.816 442.238C140.484 441.857 140.256 441.588 140.134 441.443C140.073 441.37 140.038 441.328 140.031 441.319C140.027 441.314 140.03 441.318 140.039 441.33C140.044 441.336 140.051 441.344 140.059 441.354C140.063 441.359 140.07 441.368 140.072 441.37C140.08 441.38 140.089 441.39 120.651 457.112C101.214 472.835 101.223 472.846 101.233 472.858C101.236 472.863 101.247 472.875 101.254 472.884C101.269 472.903 101.286 472.924 101.305 472.947C101.343 472.993 101.388 473.048 101.44 473.111C101.544 473.237 101.677 473.398 101.838 473.59C102.161 473.975 102.599 474.489 103.15 475.12C104.251 476.382 105.807 478.113 107.804 480.212C111.79 484.405 117.566 490.097 125.015 496.457C139.848 509.119 161.712 524.76 189.678 536.289C247.041 559.935 327.065 564.858 418.742 499.676L389.768 458.926ZM120.651 457.112C105.167 476.74 105.176 476.747 105.186 476.755C105.19 476.758 105.2 476.766 105.208 476.772C105.224 476.785 105.242 476.799 105.263 476.815C105.304 476.847 105.353 476.886 105.412 476.931C105.528 477.022 105.68 477.14 105.867 477.282C106.239 477.567 106.75 477.954 107.393 478.431C108.68 479.385 110.503 480.705 112.822 482.306C117.455 485.505 124.101 489.848 132.45 494.66C149.079 504.244 172.848 515.906 201.23 523.963C258.445 540.205 335.653 541.883 408.443 481.578L376.544 443.075C319.96 489.954 261.247 489.025 214.884 475.864C191.478 469.22 171.544 459.481 157.417 451.34C150.388 447.289 144.893 443.689 141.23 441.16C139.4 439.897 138.035 438.906 137.172 438.266C136.741 437.946 136.436 437.715 136.261 437.581C136.174 437.514 136.12 437.472 136.098 437.456C136.088 437.448 136.086 437.446 136.092 437.451C136.095 437.453 136.1 437.457 136.108 437.463C136.111 437.466 136.118 437.471 136.12 437.473C136.128 437.479 136.136 437.485 120.651 457.112ZM408.435 481.584C475.3 426.236 487.04 365.598 479.396 317.804C475.713 294.77 467.706 275.598 460.732 262.272C457.223 255.566 453.908 250.214 451.402 246.448C450.146 244.561 449.086 243.062 448.297 241.979C447.902 241.437 447.573 240.999 447.322 240.667C447.196 240.501 447.089 240.362 447.002 240.249C446.958 240.193 446.92 240.144 446.887 240.101C446.87 240.08 446.855 240.06 446.841 240.043C446.833 240.034 446.824 240.022 446.82 240.017C446.811 240.005 446.802 239.994 427.171 255.474C407.54 270.953 407.532 270.943 407.524 270.933C407.522 270.93 407.514 270.92 407.51 270.915C407.501 270.903 407.493 270.894 407.487 270.885C407.474 270.869 407.466 270.859 407.463 270.855C407.457 270.847 407.47 270.864 407.501 270.905C407.564 270.987 407.698 271.166 407.897 271.438C408.294 271.982 408.943 272.896 409.778 274.15C411.452 276.666 413.843 280.508 416.432 285.456C421.655 295.437 427.418 309.403 430.024 325.7C434.96 356.567 429.361 399.355 376.553 443.068L408.435 481.584ZM403.676 264.017C417.164 301.108 416.409 330.443 409.248 353.684C401.981 377.267 387.469 396.629 370.308 412.288C353.109 427.982 333.928 439.318 318.775 446.773C311.262 450.469 304.897 453.134 300.493 454.847C298.295 455.702 296.597 456.316 295.502 456.698C294.955 456.89 294.56 457.023 294.329 457.099C294.214 457.138 294.14 457.162 294.109 457.172C294.093 457.177 294.088 457.179 294.094 457.177C294.097 457.176 294.103 457.174 294.112 457.171C294.116 457.17 294.124 457.167 294.126 457.166C294.136 457.163 294.146 457.16 301.678 480.999C309.21 504.837 309.221 504.834 309.233 504.83C309.238 504.828 309.251 504.824 309.26 504.821C309.28 504.815 309.303 504.807 309.329 504.799C309.38 504.783 309.442 504.763 309.516 504.739C309.663 504.691 309.855 504.628 310.09 504.55C310.56 504.394 311.202 504.177 312.004 503.897C313.605 503.337 315.847 502.524 318.62 501.446C324.157 499.292 331.86 496.059 340.847 491.638C358.697 482.856 382.257 469.071 404.01 449.223C425.8 429.341 446.451 402.742 457.03 368.409C467.715 333.734 467.491 293.198 450.666 246.93L403.676 264.017ZM313.725 502.905C378.576 467.24 402.941 417.934 409.78 376.406C413.115 356.159 412.217 338.324 410.498 325.527C409.635 319.099 408.552 313.852 407.647 310.092C407.194 308.209 406.783 306.689 406.463 305.572C406.303 305.013 406.165 304.553 406.056 304.198C406.001 304.021 405.953 303.869 405.914 303.744C405.894 303.681 405.876 303.625 405.86 303.576C405.852 303.552 405.844 303.529 405.838 303.507C405.834 303.497 405.829 303.482 405.828 303.477C405.823 303.463 405.818 303.449 382.066 311.249C358.314 319.049 358.31 319.036 358.306 319.023C358.305 319.019 358.301 319.007 358.298 319C358.293 318.985 358.289 318.972 358.285 318.96C358.278 318.937 358.272 318.919 358.269 318.908C358.262 318.886 358.262 318.888 358.27 318.913C358.286 318.964 358.33 319.11 358.397 319.345C358.532 319.816 358.759 320.643 359.036 321.792C359.59 324.094 360.335 327.65 360.943 332.183C362.169 341.305 362.794 354.017 360.445 368.281C355.917 395.775 340.088 431.344 289.63 459.093L313.725 502.905ZM357.066 311.249C357.066 349.224 340.268 374.327 323.093 390.506C314.38 398.714 305.615 404.542 299.064 408.289C295.809 410.151 293.165 411.463 291.434 412.269C290.571 412.672 289.942 412.946 289.585 413.097C289.407 413.172 289.298 413.217 289.262 413.231C289.244 413.239 289.245 413.238 289.265 413.23C289.274 413.227 289.289 413.221 289.309 413.213C289.318 413.209 289.329 413.205 289.341 413.2C289.348 413.198 289.358 413.194 289.361 413.193C289.371 413.189 289.382 413.185 298.404 436.5C307.426 459.815 307.437 459.811 307.449 459.806C307.453 459.805 307.465 459.8 307.474 459.797C307.491 459.79 307.51 459.783 307.529 459.775C307.569 459.759 307.614 459.742 307.664 459.722C307.764 459.682 307.885 459.634 308.026 459.577C308.306 459.463 308.667 459.315 309.102 459.131C309.971 458.762 311.139 458.25 312.563 457.586C315.408 456.259 319.299 454.316 323.889 451.691C333.024 446.466 345.175 438.396 357.377 426.901C382.033 403.674 407.066 366.151 407.066 311.249H357.066ZM320.53 448.138C325.77 438.176 328.695 427.16 329.087 415.91L279.118 414.167C278.987 417.9 278.017 421.556 276.278 424.862L320.53 448.138ZM329.093 415.738C329.488 401.631 325.273 387.779 317.086 376.282L276.357 405.285C278.236 407.923 279.203 411.102 279.112 414.339L329.093 415.738ZM317.086 376.282C308.9 364.786 297.189 356.272 283.728 352.031L268.702 399.719C271.791 400.693 274.479 402.646 276.357 405.285L317.086 376.282ZM276.215 375.875C253.43 365.587 253.43 365.587 253.43 365.587C253.43 365.587 253.43 365.588 253.429 365.589C253.429 365.59 253.427 365.593 253.426 365.596C253.423 365.603 253.418 365.613 253.412 365.626C253.4 365.654 253.381 365.695 253.357 365.75C253.307 365.859 253.233 366.022 253.137 366.235C252.944 366.662 252.66 367.29 252.297 368.091C251.571 369.693 250.532 371.986 249.278 374.744C246.768 380.263 243.408 387.629 239.991 395.041C236.564 402.476 233.125 409.864 230.443 415.463C229.091 418.287 228.007 420.499 227.246 421.986C227.063 422.345 226.914 422.63 226.798 422.847C226.741 422.955 226.697 423.037 226.664 423.097C226.631 423.158 226.616 423.185 226.617 423.183C226.618 423.181 226.625 423.168 226.638 423.145C226.651 423.123 226.673 423.087 226.701 423.039C226.752 422.953 226.862 422.773 227.021 422.529C227.163 422.31 227.458 421.866 227.879 421.308C228.184 420.904 229.138 419.654 230.623 418.262L264.82 454.738C267.324 452.39 268.843 449.931 268.926 449.804C269.424 449.039 269.834 448.334 270.105 447.856C270.668 446.864 271.242 445.771 271.759 444.76C272.822 442.682 274.13 440.002 275.54 437.057C278.383 431.119 281.946 423.464 285.4 415.97C288.865 408.453 292.264 401.004 294.793 395.44C296.059 392.656 297.109 390.341 297.843 388.719C298.211 387.909 298.499 387.272 298.696 386.836C298.794 386.619 298.87 386.451 298.921 386.338C298.947 386.281 298.966 386.238 298.979 386.209C298.986 386.194 298.991 386.183 298.994 386.176C298.996 386.172 298.997 386.169 298.998 386.167C298.999 386.166 298.999 386.165 298.999 386.164C299 386.164 299 386.163 276.215 375.875ZM230.623 418.262C227.266 421.408 230.772 418.098 232.424 417.042C234.751 415.553 236.344 415.3 235.617 415.465C233.621 415.916 226.934 416.835 209.528 416.835V466.835C227.405 466.835 238.845 465.996 246.639 464.234C250.808 463.292 255.213 461.819 259.369 459.16C262.851 456.932 267.206 452.501 264.82 454.738L230.623 418.262ZM209.869 416.837C203.699 416.753 197.653 415.1 192.298 412.033L167.448 455.42C180.166 462.705 194.53 466.632 209.186 466.833L209.869 416.837ZM192.298 412.033C186.944 408.966 182.459 404.587 179.264 399.308L136.486 425.192C144.074 437.733 154.729 448.135 167.448 455.42L192.298 412.033ZM162.347 436.847C176.48 434.277 193.694 426.082 207.529 414.66C221.147 403.418 236.346 384.89 236.346 360.234H186.346C186.346 363.343 184.146 369.126 175.697 376.102C167.464 382.898 157.942 386.828 153.403 387.653L162.347 436.847ZM236.342 359.756C235.993 341.521 228.478 324.157 215.423 311.421L180.508 347.211C184.155 350.768 186.253 355.618 186.351 360.711L236.342 359.756ZM215.423 311.421C202.368 298.685 184.823 291.602 166.585 291.705L166.867 341.705C171.961 341.676 176.862 343.654 180.508 347.211L215.423 311.421ZM166.726 291.705C150.525 291.705 132.975 298.651 120.982 304.148C108.041 310.078 96.5795 316.758 92.3358 319.128L116.714 362.782C121.807 359.938 131.139 354.493 141.812 349.602C153.433 344.277 162.315 341.705 166.726 341.705V291.705ZM125.435 327.252L92.6974 277.297L50.8776 304.703L83.6151 354.658L125.435 327.252Z" fill="#00FFFF" mask="url(#path-1-inside-1_279_256)"/>
<mask id="path-3-inside-2_279_256" fill="white">
<path d="M97.25 329.436C98.3412 293.789 118.954 254.504 175.82 229.526C232.686 204.549 312.59 223.706 327.261 234.982C327.261 234.982 283.126 235.952 274.275 252.079C274.275 252.079 339.507 288.454 339.507 342.774C339.507 397.094 304.224 415.524 304.224 415.524"/>
</mask>
<path d="M72.2617 328.671C71.8392 342.472 82.6844 354.002 96.4851 354.424C110.286 354.847 121.816 344.002 122.238 330.201L72.2617 328.671ZM327.261 234.982L327.811 259.976C338.414 259.743 347.716 252.846 351.018 242.767C354.321 232.689 350.905 221.624 342.496 215.161L327.261 234.982ZM274.275 252.079L252.359 240.05C245.747 252.096 250.098 267.221 262.099 273.913L274.275 252.079ZM292.649 393.365C280.411 399.757 275.672 414.86 282.065 427.098C288.457 439.336 303.56 444.075 315.798 437.683L292.649 393.365ZM122.238 330.201C123.005 305.169 136.903 273.925 185.874 252.416L165.766 206.637C101.004 235.082 73.6779 282.408 72.2617 328.671L122.238 330.201ZM185.874 252.416C208.73 242.376 238.001 240.676 264.719 243.519C277.809 244.912 289.527 247.317 298.521 249.894C308.618 252.786 312.379 255.075 312.026 254.804L342.496 215.161C334.808 209.252 323.079 204.918 312.291 201.827C300.399 198.42 285.837 195.483 270.009 193.799C238.89 190.489 199.776 191.699 165.766 206.637L185.874 252.416ZM327.261 234.982C326.712 209.988 326.707 209.989 326.703 209.989C326.701 209.989 326.696 209.989 326.692 209.989C326.685 209.989 326.677 209.989 326.668 209.989C326.651 209.99 326.631 209.99 326.608 209.991C326.563 209.992 326.507 209.993 326.44 209.995C326.307 209.999 326.131 210.004 325.916 210.012C325.485 210.026 324.895 210.049 324.164 210.084C322.705 210.153 320.673 210.27 318.228 210.466C313.394 210.854 306.692 211.57 299.515 212.905C292.509 214.208 284.089 216.273 276.254 219.706C269.034 222.87 258.525 228.815 252.359 240.05L296.191 264.108C294.45 267.279 292.777 267.056 296.323 265.502C299.252 264.218 303.525 263.017 308.659 262.062C313.623 261.138 318.508 260.604 322.225 260.306C324.057 260.159 325.541 260.074 326.531 260.028C327.025 260.004 327.391 259.99 327.611 259.983C327.721 259.979 327.795 259.977 327.829 259.976C327.846 259.976 327.853 259.975 327.85 259.975C327.849 259.976 327.845 259.976 327.838 259.976C327.835 259.976 327.831 259.976 327.826 259.976C327.824 259.976 327.82 259.976 327.819 259.976C327.815 259.976 327.811 259.976 327.261 234.982ZM274.275 252.079C262.099 273.913 262.093 273.91 262.087 273.906C262.085 273.905 262.079 273.902 262.075 273.9C262.068 273.896 262.062 273.893 262.057 273.89C262.046 273.884 262.04 273.88 262.037 273.879C262.032 273.875 262.041 273.881 262.065 273.894C262.113 273.922 262.218 273.982 262.378 274.076C262.697 274.263 263.231 274.58 263.949 275.023C265.387 275.911 267.545 277.291 270.181 279.126C275.497 282.829 282.519 288.217 289.448 294.965C304.019 309.157 314.507 325.711 314.507 342.774H364.507C364.507 305.516 342.38 276.723 324.334 259.147C314.955 250.012 305.669 242.911 298.755 238.096C295.275 235.672 292.336 233.786 290.207 232.473C289.141 231.815 288.273 231.298 287.637 230.925C287.319 230.739 287.058 230.589 286.859 230.475C286.76 230.418 286.676 230.371 286.607 230.332C286.573 230.313 286.543 230.296 286.517 230.281C286.504 230.274 286.492 230.267 286.481 230.261C286.475 230.258 286.468 230.253 286.465 230.252C286.458 230.248 286.451 230.244 274.275 252.079ZM314.507 342.774C314.507 364.042 307.748 376.913 302.095 384.218C299.152 388.021 296.296 390.576 294.374 392.072C293.418 392.817 292.714 393.284 292.379 393.495C292.213 393.601 292.141 393.641 292.18 393.618C292.2 393.607 292.247 393.58 292.325 393.538C292.363 393.516 292.41 393.491 292.464 393.463C292.491 393.448 292.52 393.433 292.55 393.416C292.566 393.408 292.582 393.4 292.598 393.391C292.607 393.387 292.619 393.38 292.623 393.378C292.636 393.371 292.649 393.365 304.224 415.524C315.798 437.683 315.812 437.676 315.825 437.669C315.83 437.667 315.843 437.659 315.852 437.655C315.871 437.645 315.89 437.635 315.91 437.624C315.949 437.603 315.991 437.581 316.035 437.558C316.123 437.511 316.22 437.458 316.325 437.401C316.536 437.285 316.782 437.148 317.06 436.989C317.616 436.67 318.302 436.261 319.101 435.756C320.695 434.748 322.748 433.35 325.099 431.518C329.794 427.862 335.759 422.414 341.636 414.82C353.625 399.329 364.507 375.825 364.507 342.774H314.507Z" fill="#00FFFF" mask="url(#path-3-inside-2_279_256)"/>
<mask id="path-5-inside-3_279_256" fill="white">
<path d="M133.625 347.866C131.126 345.4 129.191 342.421 127.956 339.134C126.721 335.848 126.214 332.332 126.471 328.83M161.997 392.729C164.152 398.301 167.701 403.227 172.304 407.036Z"/>
</mask>
<path d="M116.067 365.663C125.896 375.36 141.724 375.253 151.421 365.424C161.118 355.596 161.012 339.767 151.183 330.07L116.067 365.663ZM151.404 330.659C152.414 316.888 142.07 304.907 128.3 303.897C114.53 302.887 102.548 313.231 101.538 327.002L151.404 330.659ZM185.315 383.712C180.335 370.834 165.858 364.432 152.98 369.412C140.103 374.392 133.7 388.868 138.68 401.746L185.315 383.712ZM156.365 426.297C167.002 435.099 182.761 433.612 191.564 422.975C200.367 412.338 198.88 396.579 188.242 387.776L156.365 426.297ZM151.183 330.07C151.26 330.146 151.32 330.238 151.358 330.34L104.554 347.929C107.063 354.604 110.991 360.655 116.067 365.663L151.183 330.07ZM151.358 330.34C151.397 330.442 151.412 330.55 151.404 330.659L101.538 327.002C101.017 334.113 102.046 341.254 104.554 347.929L151.358 330.34ZM138.68 401.746C142.378 411.308 148.467 419.761 156.365 426.297L188.242 387.776C186.935 386.694 185.927 385.295 185.315 383.712L138.68 401.746Z" fill="#00FFFF" mask="url(#path-5-inside-3_279_256)"/>
<circle cx="451.465" cy="92.7255" r="24.9847" stroke="#00FFFF" stroke-width="25"/>
<path d="M185.788 63.1322C185.788 65.6152 188.535 71.8917 202.472 78.2725C215.312 84.1511 233.929 88.117 255.163 88.117C276.396 88.117 295.013 84.1511 307.853 78.2725C321.79 71.8917 324.537 65.6152 324.537 63.1322C324.537 60.6492 321.79 54.3727 307.853 47.992C295.013 42.1133 276.396 38.1475 255.163 38.1475C233.929 38.1475 215.312 42.1133 202.472 47.992C188.535 54.3727 185.788 60.6492 185.788 63.1322Z" stroke="#00FFFF" stroke-width="25"/>
<circle cx="450.478" cy="91.7388" r="8.87797" fill="#00FFFF"/>
<circle cx="77.6026" cy="249.569" r="8.87797" fill="#00FFFF"/>
</svg>
