<?xml version="1.0" encoding="utf-8"?>
<!-- Generator: Adobe Illustrator 27.6.1, SVG Export Plug-In . SVG Version: 6.00 Build 0)  -->
<svg version="1.1" id="Layer_1" xmlns="http://www.w3.org/2000/svg" xmlns:xlink="http://www.w3.org/1999/xlink" x="0px" y="0px"
	 viewBox="0 0 1000 1000" style="enable-background:new 0 0 1000 1000;" xml:space="preserve">
<style type="text/css">
	.st0{fill:#FFFFFF;}
</style>
<path d="M750,1000H250C111.93,1000,0,888.07,0,750V250C0,111.93,111.93,0,250,0h500c138.07,0,250,111.93,250,250v500
	C1000,888.07,888.07,1000,750,1000z"/>
<g>
	<path class="st0" d="M858.03,433.42L252.55,83.84c-51.25-29.58-115.32,7.4-115.32,66.59v699.15c0,46.99,40.38,79.98,82.67,76.78
		V475.47c0-42.46,34.42-76.88,76.88-76.88h361.29c42.46,0,76.88,34.42,76.88,76.88v162.17l123.08-71.06
		C909.28,536.98,909.28,463.02,858.03,433.42z"/>
	<path class="st0" d="M290.8,555.61h28.83c14.15,0,25.63-11.47,25.63-25.63v-28.83c0-14.15-11.47-25.63-25.63-25.63H290.8
		c-14.15,0-25.63,11.47-25.63,25.63v28.83C265.17,544.14,276.65,555.61,290.8,555.61z"/>
	<path class="st0" d="M265.17,642.26c0,14.15,11.47,25.63,25.63,25.63h28.83c14.15,0,25.63-11.47,25.63-25.63v-28.83
		c0-14.15-11.47-25.63-25.63-25.63H290.8c-14.15,0-25.63,11.47-25.63,25.63V642.26z"/>
	<path class="st0" d="M265.17,754.53c0,14.15,11.47,25.63,25.63,25.63h28.83c14.15,0,25.63-11.47,25.63-25.63V725.7
		c0-14.15-11.47-25.63-25.63-25.63H290.8c-14.15,0-25.63,11.47-25.63,25.63V754.53z"/>
	<path class="st0" d="M319.64,812.34H290.8c-14.16,0-25.63,11.48-25.63,25.63v28.83c0,14.16,11.47,25.63,25.63,25.63h2.85
		l51.61-29.8v-24.66C345.26,823.83,333.78,812.34,319.64,812.34z"/>
	<path class="st0" d="M635.21,555.61h28.83c14.15,0,25.63-11.47,25.63-25.63v-28.83c0-14.15-11.47-25.63-25.63-25.63h-28.83
		c-14.15,0-25.63,11.47-25.63,25.63v28.83C609.58,544.14,621.06,555.61,635.21,555.61z"/>
	<path class="st0" d="M609.58,642.26c0,14.15,11.47,25.63,25.63,25.63h28.83c14.15,0,25.63-11.47,25.63-25.63v-28.83
		c0-14.15-11.47-25.63-25.63-25.63h-28.83c-14.15,0-25.63,11.47-25.63,25.63V642.26z"/>
</g>
</svg>
