<?xml version="1.0" encoding="utf-8"?>
<!-- Generator: Adobe Illustrator 27.6.1, SVG Export Plug-In . SVG Version: 6.00 Build 0)  -->
<svg version="1.1" id="Layer_1" xmlns="http://www.w3.org/2000/svg" xmlns:xlink="http://www.w3.org/1999/xlink" x="0px" y="0px"
	 viewBox="0 0 1000 1000" style="enable-background:new 0 0 1000 1000;" xml:space="preserve">
<style type="text/css">
	.st0{fill:#231F20;}
</style>
<g>
	<path class="st0" d="M777.85,445.78L284.76,161.09c-41.74-24.09-93.91,6.03-93.91,54.23v569.36c0,38.26,32.88,65.14,67.32,62.53
		V480.02c0-34.58,28.03-62.61,62.61-62.61H615c34.58,0,62.61,28.03,62.61,62.61v132.07l100.24-57.87
		C819.58,530.12,819.58,469.88,777.85,445.78z"/>
	<path class="st0" d="M315.91,545.29h23.48c11.53,0,20.87-9.34,20.87-20.87v-23.48c0-11.53-9.34-20.87-20.87-20.87h-23.48
		c-11.53,0-20.87,9.34-20.87,20.87v23.48C295.04,535.95,304.39,545.29,315.91,545.29z"/>
	<path class="st0" d="M295.04,615.85c0,11.53,9.34,20.87,20.87,20.87h23.48c11.53,0,20.87-9.34,20.87-20.87v-23.48
		c0-11.53-9.34-20.87-20.87-20.87h-23.48c-11.53,0-20.87,9.34-20.87,20.87V615.85z"/>
	<path class="st0" d="M295.04,707.28c0,11.53,9.34,20.87,20.87,20.87h23.48c11.53,0,20.87-9.34,20.87-20.87V683.8
		c0-11.53-9.34-20.87-20.87-20.87h-23.48c-11.53,0-20.87,9.34-20.87,20.87V707.28z"/>
	<path class="st0" d="M339.39,754.36h-23.48c-11.53,0-20.87,9.35-20.87,20.87v23.48c0,11.53,9.34,20.87,20.87,20.87h2.32
		l42.03-24.27v-20.08C360.26,763.71,350.91,754.36,339.39,754.36z"/>
	<path class="st0" d="M596.39,545.29h23.48c11.53,0,20.87-9.34,20.87-20.87v-23.48c0-11.53-9.34-20.87-20.87-20.87h-23.48
		c-11.53,0-20.87,9.34-20.87,20.87v23.48C575.52,535.95,584.86,545.29,596.39,545.29z"/>
	<path class="st0" d="M575.52,615.85c0,11.53,9.34,20.87,20.87,20.87h23.48c11.53,0,20.87-9.34,20.87-20.87v-23.48
		c0-11.53-9.34-20.87-20.87-20.87h-23.48c-11.53,0-20.87,9.34-20.87,20.87V615.85z"/>
</g>
</svg>
